<svg xmlns="http://www.w3.org/2000/svg" xmlns:xlink="http://www.w3.org/1999/xlink" contentStyleType="text/css" data-diagram-type="SEQUENCE" height="298px" preserveAspectRatio="none" style="width:352px;height:298px;background:#FFFFFF;" version="1.1" viewBox="0 0 352 298" width="352px" zoomAndPan="magnify"><defs/><g><g><title>User</title><rect fill="#FFFFFF" fill-opacity="0.00000" height="136.5313" width="8" x="19.9551" y="81.2969"/><line style="stroke:#181818;stroke-width:0.5;stroke-dasharray:5.0,5.0;" x1="23" x2="23" y1="81.2969" y2="217.8281"/></g><g><title>Web App</title><rect fill="#FFFFFF" fill-opacity="0.00000" height="136.5313" width="8" x="146.4063" y="81.2969"/><line style="stroke:#181818;stroke-width:0.5;stroke-dasharray:5.0,5.0;" x1="149.8345" x2="149.8345" y1="81.2969" y2="217.8281"/></g><g><title>Database</title><rect fill="#FFFFFF" fill-opacity="0.00000" height="136.5313" width="8" x="310.7212" y="81.2969"/><line style="stroke:#181818;stroke-width:0.5;stroke-dasharray:5.0,5.0;" x1="314.3208" x2="314.3208" y1="81.2969" y2="217.8281"/></g><g><text fill="#000000" font-family="sans-serif" font-size="14" lengthAdjust="spacing" textLength="31.9102" x="5" y="77.9951">User</text><ellipse cx="23.9551" cy="13.5" fill="#E2E2F0" rx="8" ry="8" style="stroke:#181818;stroke-width:0.5;"/><path d="M23.9551,21.5 L23.9551,48.5 M10.9551,29.5 L36.9551,29.5 M23.9551,48.5 L10.9551,63.5 M23.9551,48.5 L36.9551,63.5 " fill="#FFFFFF" fill-opacity="0.00000" style="stroke:#181818;stroke-width:0.5;"/></g><g><text fill="#000000" font-family="sans-serif" font-size="14" lengthAdjust="spacing" textLength="31.9102" x="5" y="229.8232">User</text><ellipse cx="23.9551" cy="241.625" fill="#E2E2F0" rx="8" ry="8" style="stroke:#181818;stroke-width:0.5;"/><path d="M23.9551,249.625 L23.9551,276.625 M10.9551,257.625 L36.9551,257.625 M23.9551,276.625 L10.9551,291.625 M23.9551,276.625 L36.9551,291.625 " fill="#FFFFFF" fill-opacity="0.00000" style="stroke:#181818;stroke-width:0.5;"/></g><g><rect fill="#E2E2F0" height="30.2969" rx="2.5" ry="2.5" style="stroke:#181818;stroke-width:0.5;" width="77.1436" x="111.8345" y="50"/><text fill="#000000" font-family="sans-serif" font-size="14" lengthAdjust="spacing" textLength="63.1436" x="118.8345" y="69.9951">Web App</text></g><g><rect fill="#E2E2F0" height="30.2969" rx="2.5" ry="2.5" style="stroke:#181818;stroke-width:0.5;" width="77.1436" x="111.8345" y="216.8281"/><text fill="#000000" font-family="sans-serif" font-size="14" lengthAdjust="spacing" textLength="63.1436" x="118.8345" y="236.8232">Web App</text></g><g><text fill="#000000" font-family="sans-serif" font-size="14" lengthAdjust="spacing" textLength="66.8008" x="278.3208" y="77.9951">Database</text><path d="M296.7212,29 C296.7212,19 314.7212,19 314.7212,19 C314.7212,19 332.7212,19 332.7212,29 L332.7212,55 C332.7212,65 314.7212,65 314.7212,65 C314.7212,65 296.7212,65 296.7212,55 L296.7212,29 " fill="#E2E2F0" style="stroke:#181818;stroke-width:1.5;"/><path d="M296.7212,29 C296.7212,39 314.7212,39 314.7212,39 C314.7212,39 332.7212,39 332.7212,29 " fill="#FFFFFF" fill-opacity="0.00000" style="stroke:#181818;stroke-width:1.5;"/></g><g><text fill="#000000" font-family="sans-serif" font-size="14" lengthAdjust="spacing" textLength="66.8008" x="278.3208" y="229.8232">Database</text><path d="M296.7212,243.125 C296.7212,233.125 314.7212,233.125 314.7212,233.125 C314.7212,233.125 332.7212,233.125 332.7212,243.125 L332.7212,269.125 C332.7212,279.125 314.7212,279.125 314.7212,279.125 C314.7212,279.125 296.7212,279.125 296.7212,269.125 L296.7212,243.125 " fill="#E2E2F0" style="stroke:#181818;stroke-width:1.5;"/><path d="M296.7212,243.125 C296.7212,253.125 314.7212,253.125 314.7212,253.125 C314.7212,253.125 332.7212,253.125 332.7212,243.125 " fill="#FFFFFF" fill-opacity="0.00000" style="stroke:#181818;stroke-width:1.5;"/></g><g><polygon fill="#181818" points="138.4063,108.4297,148.4063,112.4297,138.4063,116.4297,142.4063,112.4297" style="stroke:#181818;stroke-width:1;"/><line style="stroke:#181818;stroke-width:1;" x1="23.9551" x2="144.4063" y1="112.4297" y2="112.4297"/><text fill="#000000" font-family="sans-serif" font-size="13" lengthAdjust="spacing" textLength="92.8218" x="30.9551" y="107.3638">Login Request</text></g><g><polygon fill="#181818" points="302.7212,137.5625,312.7212,141.5625,302.7212,145.5625,306.7212,141.5625" style="stroke:#181818;stroke-width:1;"/><line style="stroke:#181818;stroke-width:1;" x1="150.4063" x2="308.7212" y1="141.5625" y2="141.5625"/><text fill="#000000" font-family="sans-serif" font-size="13" lengthAdjust="spacing" textLength="131.498" x="157.4063" y="136.4966">Validate Credentials</text></g><g><polygon fill="#181818" points="161.4063,166.6953,151.4063,170.6953,161.4063,174.6953,157.4063,170.6953" style="stroke:#181818;stroke-width:1;"/><line style="stroke:#181818;stroke-width:1;stroke-dasharray:2.0,2.0;" x1="155.4063" x2="313.7212" y1="170.6953" y2="170.6953"/><text fill="#000000" font-family="sans-serif" font-size="13" lengthAdjust="spacing" textLength="140.3149" x="167.4063" y="165.6294">Authentication Result</text></g><g><polygon fill="#181818" points="34.9551,195.8281,24.9551,199.8281,34.9551,203.8281,30.9551,199.8281" style="stroke:#181818;stroke-width:1;"/><line style="stroke:#181818;stroke-width:1;stroke-dasharray:2.0,2.0;" x1="28.9551" x2="149.4063" y1="199.8281" y2="199.8281"/><text fill="#000000" font-family="sans-serif" font-size="13" lengthAdjust="spacing" textLength="102.4512" x="40.9551" y="194.7622">Login Response</text></g><!--SRC=[HOqz3i8m38LtdyBAtWjqG6h8o8G4p6vgGQGe2R5xVs9Kn6Jh_NoFejQED-4EZRgcc1eLHVVW5PVM79BOXOsKLX965uxlQmKFO6MSJXQRyLAVgU2LtpkBmf3C2Nx6E-Kq88pdpXiNJPG5WiVfrrnsVPaUILCrXEpv88o8ZVpfqceH_W00]--></g></svg>