<svg xmlns="http://www.w3.org/2000/svg" xmlns:xlink="http://www.w3.org/1999/xlink" contentStyleType="text/css" data-diagram-type="DESCRIPTION" height="467px" preserveAspectRatio="none" style="width:777px;height:467px;background:#FFFFFF;" version="1.1" viewBox="0 0 777 467" width="777px" zoomAndPan="magnify"><defs/><g><!--cluster steering--><g id="cluster_steering"><rect fill="#FFFFFF" fill-opacity="0.00000" height="318.59" rx="12.5" ry="12.5" style="stroke:#181818;stroke-width:1;" width="183" x="7" y="7"/><text fill="#000000" font-family="sans-serif" font-size="14" font-weight="bold" lengthAdjust="spacing" textLength="89.6738" x="53.6631" y="21.9951">Stuurgroep</text><text fill="#000000" font-family="sans-serif" font-size="14" font-style="italic" font-weight="bold" lengthAdjust="spacing" textLength="129.9785" x="33.5107" y="38.292">Kwartaaloverleg</text></g><!--cluster project--><g id="cluster_project"><rect fill="#FFFFFF" fill-opacity="0.00000" height="295.59" rx="12.5" ry="12.5" style="stroke:#181818;stroke-width:1;" width="344" x="230" y="166.3"/><text fill="#000000" font-family="sans-serif" font-size="14" font-weight="bold" lengthAdjust="spacing" textLength="102.1289" x="350.9355" y="181.2951">Projectgroep</text><text fill="#000000" font-family="sans-serif" font-size="14" font-style="italic" font-weight="bold" lengthAdjust="spacing" textLength="234.7051" x="284.6475" y="197.592">Tweewekelijks Sprint Overleg</text></g><!--entity ruben--><g id="elem_ruben"><ellipse cx="54.9968" cy="74.5" fill="#F1F1F1" rx="8" ry="8" style="stroke:#181818;stroke-width:0.5;"/><path d="M54.9968,82.5 L54.9968,109.5 M41.9968,90.5 L67.9968,90.5 M54.9968,109.5 L41.9968,124.5 M54.9968,109.5 L67.9968,124.5 " fill="#FFFFFF" fill-opacity="0.00000" style="stroke:#181818;stroke-width:0.5;"/><text fill="#000000" font-family="sans-serif" font-size="14" lengthAdjust="spacing" textLength="44.9736" x="32.51" y="138.9951">Ruben</text></g><!--entity john--><g id="elem_john"><ellipse cx="128.0002" cy="74.5" fill="#F1F1F1" rx="8" ry="8" style="stroke:#181818;stroke-width:0.5;"/><path d="M128.0002,82.5 L128.0002,109.5 M115.0002,90.5 L141.0002,90.5 M128.0002,109.5 L115.0002,124.5 M128.0002,109.5 L141.0002,124.5 " fill="#FFFFFF" fill-opacity="0.00000" style="stroke:#181818;stroke-width:0.5;"/><text fill="#000000" font-family="sans-serif" font-size="14" lengthAdjust="spacing" textLength="30.4404" x="112.78" y="138.9951">John</text></g><!--entity remco--><g id="elem_remco"><ellipse cx="55.0006" cy="233.8" fill="#F1F1F1" rx="8" ry="8" style="stroke:#181818;stroke-width:0.5;"/><path d="M55.0006,241.8 L55.0006,268.8 M42.0006,249.8 L68.0006,249.8 M55.0006,268.8 L42.0006,283.8 M55.0006,268.8 L68.0006,283.8 " fill="#FFFFFF" fill-opacity="0.00000" style="stroke:#181818;stroke-width:0.5;"/><text fill="#000000" font-family="sans-serif" font-size="14" lengthAdjust="spacing" textLength="48.2412" x="30.88" y="298.2951">Remco</text></g><!--entity jeroen--><g id="elem_jeroen"><ellipse cx="136.0049" cy="233.8" fill="#F1F1F1" rx="8" ry="8" style="stroke:#181818;stroke-width:0.5;"/><path d="M136.0049,241.8 L136.0049,268.8 M123.0049,249.8 L149.0049,249.8 M136.0049,268.8 L123.0049,283.8 M136.0049,268.8 L149.0049,283.8 " fill="#FFFFFF" fill-opacity="0.00000" style="stroke:#181818;stroke-width:0.5;"/><text fill="#000000" font-family="sans-serif" font-size="14" lengthAdjust="spacing" textLength="44.5498" x="113.73" y="298.2951">Jeroen</text></g><!--entity dev--><g id="elem_dev"><ellipse cx="322.9996" cy="233.8" fill="#F1F1F1" rx="8" ry="8" style="stroke:#181818;stroke-width:0.5;"/><path d="M322.9996,241.8 L322.9996,268.8 M309.9996,249.8 L335.9996,249.8 M322.9996,268.8 L309.9996,283.8 M322.9996,268.8 L335.9996,283.8 " fill="#FFFFFF" fill-opacity="0.00000" style="stroke:#181818;stroke-width:0.5;"/><text fill="#000000" font-family="sans-serif" font-size="14" lengthAdjust="spacing" textLength="138.0791" x="253.96" y="298.2951">Development Team</text></g><!--entity po--><g id="elem_po"><ellipse cx="478.996" cy="233.8" fill="#F1F1F1" rx="8" ry="8" style="stroke:#181818;stroke-width:0.5;"/><path d="M478.996,241.8 L478.996,268.8 M465.996,249.8 L491.996,249.8 M478.996,268.8 L465.996,283.8 M478.996,268.8 L491.996,283.8 " fill="#FFFFFF" fill-opacity="0.00000" style="stroke:#181818;stroke-width:0.5;"/><text fill="#000000" font-family="sans-serif" font-size="14" lengthAdjust="spacing" textLength="103.8721" x="427.06" y="298.2951">Product Owner</text></g><!--entity sm--><g id="elem_sm"><ellipse cx="322.9957" cy="370.09" fill="#F1F1F1" rx="8" ry="8" style="stroke:#181818;stroke-width:0.5;"/><path d="M322.9957,378.09 L322.9957,405.09 M309.9957,386.09 L335.9957,386.09 M322.9957,405.09 L309.9957,420.09 M322.9957,405.09 L335.9957,420.09 " fill="#FFFFFF" fill-opacity="0.00000" style="stroke:#181818;stroke-width:0.5;"/><text fill="#000000" font-family="sans-serif" font-size="14" lengthAdjust="spacing" textLength="97.1113" x="274.44" y="434.5851">Scrum Master</text></g><g id="elem_GMN12"><path d="M217.48,68.88 L217.48,139.4113 L416.522,139.4113 L416.522,78.88 L406.522,68.88 L217.48,68.88 " fill="#FEFFDD" style="stroke:#181818;stroke-width:0.5;"/><path d="M406.522,68.88 L406.522,78.88 L416.522,78.88 L406.522,68.88 " fill="#FEFFDD" style="stroke:#181818;stroke-width:1;"/><text fill="#000000" font-family="sans-serif" font-size="13" lengthAdjust="spacing" textLength="147.4941" x="223.48" y="85.9469">Verantwoordelijk voor:</text><ellipse cx="228.98" cy="96.6456" fill="#000000" rx="2.5" ry="2.5"/><text fill="#000000" font-family="sans-serif" font-size="13" lengthAdjust="spacing" textLength="166.042" x="235.48" y="101.0797">Strategische beslissingen</text><ellipse cx="228.98" cy="111.7784" fill="#000000" rx="2.5" ry="2.5"/><text fill="#000000" font-family="sans-serif" font-size="13" lengthAdjust="spacing" textLength="113.3691" x="235.48" y="116.2125">Budget bewaking</text><ellipse cx="228.98" cy="126.9113" fill="#000000" rx="2.5" ry="2.5"/><text fill="#000000" font-family="sans-serif" font-size="13" lengthAdjust="spacing" textLength="115.8765" x="235.48" y="131.3453">Project voortgang</text></g><g id="elem_GMN15"><path d="M601.75,228.18 L601.75,298.7113 L770.2441,298.7113 L770.2441,238.18 L760.2441,228.18 L601.75,228.18 " fill="#FEFFDD" style="stroke:#181818;stroke-width:0.5;"/><path d="M760.2441,228.18 L760.2441,238.18 L770.2441,238.18 L760.2441,228.18 " fill="#FEFFDD" style="stroke:#181818;stroke-width:1;"/><text fill="#000000" font-family="sans-serif" font-size="13" lengthAdjust="spacing" textLength="147.4941" x="607.75" y="245.2469">Verantwoordelijk voor:</text><ellipse cx="613.25" cy="255.9456" fill="#000000" rx="2.5" ry="2.5"/><text fill="#000000" font-family="sans-serif" font-size="13" lengthAdjust="spacing" textLength="99.3408" x="619.75" y="260.3797">Sprint planning</text><ellipse cx="613.25" cy="271.0784" fill="#000000" rx="2.5" ry="2.5"/><text fill="#000000" font-family="sans-serif" font-size="13" lengthAdjust="spacing" textLength="124.833" x="619.75" y="275.5125">Issue management</text><ellipse cx="613.25" cy="286.2113" fill="#000000" rx="2.5" ry="2.5"/><text fill="#000000" font-family="sans-serif" font-size="13" lengthAdjust="spacing" textLength="125.7153" x="619.75" y="290.6453">Dagelijkse operatie</text></g><!--link steering to project--><!--link steering to GMN12--><g id="link_steering_GMN12"><path d="M190.0346,104.15 C190.124,104.15 190.2134,104.15 190.3028,104.15 C190.6605,104.15 191.0182,104.15 191.3759,104.15 C194.2375,104.15 197.0988,104.15 199.96,104.15 C205.6825,104.15 211.405,104.15 217.13,104.15 " fill="#FFFFFF" fill-opacity="0.00000" id="steering-GMN12" style="stroke:#181818;stroke-width:1;stroke-dasharray:7.0,7.0;"/></g><!--link project to GMN15--><g id="link_project_GMN15"><path d="M574.1285,263.44 C574.4932,263.44 574.8579,263.44 575.2227,263.44 C578.1403,263.44 581.0581,263.44 583.9762,263.44 C589.8125,263.44 595.65,263.44 601.49,263.44 " fill="#FFFFFF" fill-opacity="0.00000" id="project-GMN15" style="stroke:#181818;stroke-width:1;stroke-dasharray:7.0,7.0;"/></g><!--SRC=[VP4_JyCm4CNtV8fJnqeL4X8BgZf05q2eY5Gim72D3yTDOaTdEnaGtvsBqp-a0vdEldllVdxnbR4jCZR0L0IqkYRupa0-Tj6gUyUM6AvlifyiEq_CyX0ZQtRKVjYbMJtro06nTXrnJNfvPLOpG0y-4B6n-c29HN0CizUu8vlwF5H_Mu-k73jxAIOQQWetQePgeY7XEAXIUS7wmculfpFjjYVggQBQx2iFUIk40JONwEsecfAlgQFQjGs9O4lOf4b5tTyPMQUY23Uz93TQJN3pWcC3poZPZ6tV3C2dg1RlfL6AxATQ726opBf0m4QN0TpNALQnVID66thdMANtG2VbhJJca0V6GDhueYJOaQ-Dzo9AWS_XBYfDGUvxh4QhEHoIIXv1ItmPMGN3xak28zZ_06EoROtM7bSyU1y96hIeQOWnNQxba7u6WMl5BnWwRVu5]--></g></svg>