<svg xmlns="http://www.w3.org/2000/svg" xmlns:xlink="http://www.w3.org/1999/xlink" contentStyleType="text/css" data-diagram-type="CLASS" height="714px" preserveAspectRatio="none" style="width:679px;height:714px;background:#FFFFFF;" version="1.1" viewBox="0 0 679 714" width="679px" zoomAndPan="magnify"><defs/><g><!--class Contract--><g class="entity" data-entity="Contract" data-source-line="2" data-uid="ent0002" id="entity_Contract"><rect fill="#F1F1F1" height="210.9688" rx="2.5" ry="2.5" style="stroke:#181818;stroke-width:0.5;" width="219.1084" x="191.55" y="7"/><ellipse cx="266.7419" cy="23" fill="#ADD1B2" rx="11" ry="11" style="stroke:#181818;stroke-width:1;"/><path d="M269.7106,28.6406 Q269.1325,28.9375 268.4919,29.0781 Q267.8513,29.2344 267.1481,29.2344 Q264.6481,29.2344 263.32,27.5938 Q262.0075,25.9375 262.0075,22.8125 Q262.0075,19.6875 263.32,18.0313 Q264.6481,16.375 267.1481,16.375 Q267.8513,16.375 268.4919,16.5313 Q269.1481,16.6875 269.7106,16.9844 L269.7106,19.7031 Q269.0856,19.125 268.4919,18.8594 Q267.8981,18.5781 267.2731,18.5781 Q265.9294,18.5781 265.2419,19.6563 Q264.5544,20.7188 264.5544,22.8125 Q264.5544,24.9063 265.2419,25.9844 Q265.9294,27.0469 267.2731,27.0469 Q267.8981,27.0469 268.4919,26.7813 Q269.0856,26.5 269.7106,25.9219 L269.7106,28.6406 Z " fill="#000000"/><text fill="#000000" font-family="sans-serif" font-size="14" lengthAdjust="spacing" textLength="60.2246" x="287.2419" y="27.8467">Contract</text><line style="stroke:#181818;stroke-width:0.5;" x1="192.55" x2="409.6584" y1="39" y2="39"/><ellipse cx="202.55" cy="52.6484" fill="none" rx="3" ry="3" style="stroke:#038048;stroke-width:1;"/><text fill="#000000" font-family="sans-serif" font-size="14" lengthAdjust="spacing" textLength="62.1318" x="211.55" y="55.9951">id: string</text><ellipse cx="202.55" cy="68.9453" fill="none" rx="3" ry="3" style="stroke:#038048;stroke-width:1;"/><text fill="#000000" font-family="sans-serif" font-size="14" lengthAdjust="spacing" textLength="120.7021" x="211.55" y="72.292">startDatum: date</text><ellipse cx="202.55" cy="85.2422" fill="none" rx="3" ry="3" style="stroke:#038048;stroke-width:1;"/><text fill="#000000" font-family="sans-serif" font-size="14" lengthAdjust="spacing" textLength="118.3574" x="211.55" y="88.5889">eindDatum: date</text><ellipse cx="202.55" cy="101.5391" fill="none" rx="3" ry="3" style="stroke:#038048;stroke-width:1;"/><text fill="#000000" font-family="sans-serif" font-size="14" lengthAdjust="spacing" textLength="168.4922" x="211.55" y="104.8857">contractNummer: string</text><ellipse cx="202.55" cy="117.8359" fill="none" rx="3" ry="3" style="stroke:#038048;stroke-width:1;"/><text fill="#000000" font-family="sans-serif" font-size="14" lengthAdjust="spacing" textLength="141.6475" x="211.55" y="121.1826">contractType: enum</text><ellipse cx="202.55" cy="134.1328" fill="none" rx="3" ry="3" style="stroke:#038048;stroke-width:1;"/><text fill="#000000" font-family="sans-serif" font-size="14" lengthAdjust="spacing" textLength="110.749" x="211.55" y="137.4795">kosten: number</text><ellipse cx="202.55" cy="150.4297" fill="none" rx="3" ry="3" style="stroke:#038048;stroke-width:1;"/><text fill="#000000" font-family="sans-serif" font-size="14" lengthAdjust="spacing" textLength="148.873" x="211.55" y="153.7764">kostenPeriode: enum</text><ellipse cx="202.55" cy="166.7266" fill="none" rx="3" ry="3" style="stroke:#038048;stroke-width:1;"/><text fill="#000000" font-family="sans-serif" font-size="14" lengthAdjust="spacing" textLength="193.1084" x="211.55" y="170.0732">documentReferentie: string</text><ellipse cx="202.55" cy="183.0234" fill="none" rx="3" ry="3" style="stroke:#038048;stroke-width:1;"/><text fill="#000000" font-family="sans-serif" font-size="14" lengthAdjust="spacing" textLength="92.1826" x="211.55" y="186.3701">status: enum</text><ellipse cx="202.55" cy="199.3203" fill="none" rx="3" ry="3" style="stroke:#038048;stroke-width:1;"/><text fill="#000000" font-family="sans-serif" font-size="14" lengthAdjust="spacing" textLength="142.0576" x="211.55" y="202.667">opmerkingen: string</text><line style="stroke:#181818;stroke-width:0.5;" x1="192.55" x2="409.6584" y1="209.9688" y2="209.9688"/></g><!--class VoorzieningAanbod--><g class="entity" data-entity="VoorzieningAanbod" data-source-line="15" data-uid="ent0003" id="entity_VoorzieningAanbod"><rect fill="#F1F1F1" height="80.5938" rx="2.5" ry="2.5" style="stroke:#181818;stroke-width:0.5;" width="168.2061" x="7" y="303.12"/><ellipse cx="22" cy="319.12" fill="#ADD1B2" rx="11" ry="11" style="stroke:#181818;stroke-width:1;"/><path d="M24.9688,324.7606 Q24.3906,325.0575 23.75,325.1981 Q23.1094,325.3544 22.4063,325.3544 Q19.9063,325.3544 18.5781,323.7138 Q17.2656,322.0575 17.2656,318.9325 Q17.2656,315.8075 18.5781,314.1513 Q19.9063,312.495 22.4063,312.495 Q23.1094,312.495 23.75,312.6513 Q24.4063,312.8075 24.9688,313.1044 L24.9688,315.8231 Q24.3438,315.245 23.75,314.9794 Q23.1563,314.6981 22.5313,314.6981 Q21.1875,314.6981 20.5,315.7763 Q19.8125,316.8388 19.8125,318.9325 Q19.8125,321.0263 20.5,322.1044 Q21.1875,323.1669 22.5313,323.1669 Q23.1563,323.1669 23.75,322.9013 Q24.3438,322.62 24.9688,322.0419 L24.9688,324.7606 Z " fill="#000000"/><text fill="#000000" font-family="sans-serif" font-size="14" lengthAdjust="spacing" textLength="136.2061" x="36" y="323.9667">VoorzieningAanbod</text><line style="stroke:#181818;stroke-width:0.5;" x1="8" x2="174.2061" y1="335.12" y2="335.12"/><ellipse cx="18" cy="348.7684" fill="none" rx="3" ry="3" style="stroke:#038048;stroke-width:1;"/><text fill="#000000" font-family="sans-serif" font-size="14" lengthAdjust="spacing" textLength="62.1318" x="27" y="352.1151">id: string</text><ellipse cx="18" cy="365.0653" fill="none" rx="3" ry="3" style="stroke:#038048;stroke-width:1;"/><text fill="#000000" font-family="sans-serif" font-size="14" lengthAdjust="spacing" textLength="89.0244" x="27" y="368.412">naam: string</text><line style="stroke:#181818;stroke-width:0.5;" x1="8" x2="174.2061" y1="375.7138" y2="375.7138"/></g><!--class VoorzieningGebruik--><g class="entity" data-entity="VoorzieningGebruik" data-source-line="20" data-uid="ent0004" id="entity_VoorzieningGebruik"><rect fill="#F1F1F1" height="64.2969" rx="2.5" ry="2.5" style="stroke:#181818;stroke-width:0.5;" width="169.8125" x="210.2" y="311.26"/><ellipse cx="225.2" cy="327.26" fill="#ADD1B2" rx="11" ry="11" style="stroke:#181818;stroke-width:1;"/><path d="M228.1688,332.9006 Q227.5906,333.1975 226.95,333.3381 Q226.3094,333.4944 225.6063,333.4944 Q223.1063,333.4944 221.7781,331.8538 Q220.4656,330.1975 220.4656,327.0725 Q220.4656,323.9475 221.7781,322.2913 Q223.1063,320.635 225.6063,320.635 Q226.3094,320.635 226.95,320.7913 Q227.6063,320.9475 228.1688,321.2444 L228.1688,323.9631 Q227.5438,323.385 226.95,323.1194 Q226.3563,322.8381 225.7313,322.8381 Q224.3875,322.8381 223.7,323.9163 Q223.0125,324.9788 223.0125,327.0725 Q223.0125,329.1663 223.7,330.2444 Q224.3875,331.3069 225.7313,331.3069 Q226.3563,331.3069 226.95,331.0413 Q227.5438,330.76 228.1688,330.1819 L228.1688,332.9006 Z " fill="#000000"/><text fill="#000000" font-family="sans-serif" font-size="14" lengthAdjust="spacing" textLength="137.8125" x="239.2" y="332.1067">VoorzieningGebruik</text><line style="stroke:#181818;stroke-width:0.5;" x1="211.2" x2="379.0125" y1="343.26" y2="343.26"/><ellipse cx="221.2" cy="356.9084" fill="none" rx="3" ry="3" style="stroke:#038048;stroke-width:1;"/><text fill="#000000" font-family="sans-serif" font-size="14" lengthAdjust="spacing" textLength="62.1318" x="230.2" y="360.2551">id: string</text><line style="stroke:#181818;stroke-width:0.5;" x1="211.2" x2="379.0125" y1="367.5569" y2="367.5569"/></g><!--class Organisatie--><g class="entity" data-entity="Organisatie" data-source-line="24" data-uid="ent0005" id="entity_Organisatie"><rect fill="#F1F1F1" height="80.5938" rx="2.5" ry="2.5" style="stroke:#181818;stroke-width:0.5;" width="115.0244" x="189.59" y="452.86"/><ellipse cx="205.5599" cy="468.86" fill="#ADD1B2" rx="11" ry="11" style="stroke:#181818;stroke-width:1;"/><path d="M208.5286,474.5006 Q207.9505,474.7975 207.3099,474.9381 Q206.6692,475.0944 205.9661,475.0944 Q203.4661,475.0944 202.138,473.4538 Q200.8255,471.7975 200.8255,468.6725 Q200.8255,465.5475 202.138,463.8913 Q203.4661,462.235 205.9661,462.235 Q206.6692,462.235 207.3099,462.3913 Q207.9661,462.5475 208.5286,462.8444 L208.5286,465.5631 Q207.9036,464.985 207.3099,464.7194 Q206.7161,464.4381 206.0911,464.4381 Q204.7474,464.4381 204.0599,465.5163 Q203.3724,466.5788 203.3724,468.6725 Q203.3724,470.7663 204.0599,471.8444 Q204.7474,472.9069 206.0911,472.9069 Q206.7161,472.9069 207.3099,472.6413 Q207.9036,472.36 208.5286,471.7819 L208.5286,474.5006 Z " fill="#000000"/><text fill="#000000" font-family="sans-serif" font-size="14" lengthAdjust="spacing" textLength="80.8691" x="219.7754" y="473.7067">Organisatie</text><line style="stroke:#181818;stroke-width:0.5;" x1="190.59" x2="303.6144" y1="484.86" y2="484.86"/><ellipse cx="200.59" cy="498.5084" fill="none" rx="3" ry="3" style="stroke:#038048;stroke-width:1;"/><text fill="#000000" font-family="sans-serif" font-size="14" lengthAdjust="spacing" textLength="62.1318" x="209.59" y="501.8551">id: string</text><ellipse cx="200.59" cy="514.8053" fill="none" rx="3" ry="3" style="stroke:#038048;stroke-width:1;"/><text fill="#000000" font-family="sans-serif" font-size="14" lengthAdjust="spacing" textLength="89.0244" x="209.59" y="518.152">naam: string</text><line style="stroke:#181818;stroke-width:0.5;" x1="190.59" x2="303.6144" y1="525.4538" y2="525.4538"/></g><!--class Voorziening--><g class="entity" data-entity="Voorziening" data-source-line="29" data-uid="ent0006" id="entity_Voorziening"><rect fill="#F1F1F1" height="80.5938" rx="2.5" ry="2.5" style="stroke:#181818;stroke-width:0.5;" width="115.0244" x="339.59" y="452.86"/><ellipse cx="354.6739" cy="468.86" fill="#ADD1B2" rx="11" ry="11" style="stroke:#181818;stroke-width:1;"/><path d="M357.6427,474.5006 Q357.0646,474.7975 356.4239,474.9381 Q355.7833,475.0944 355.0802,475.0944 Q352.5802,475.0944 351.2521,473.4538 Q349.9396,471.7975 349.9396,468.6725 Q349.9396,465.5475 351.2521,463.8913 Q352.5802,462.235 355.0802,462.235 Q355.7833,462.235 356.4239,462.3913 Q357.0802,462.5475 357.6427,462.8444 L357.6427,465.5631 Q357.0177,464.985 356.4239,464.7194 Q355.8302,464.4381 355.2052,464.4381 Q353.8614,464.4381 353.1739,465.5163 Q352.4864,466.5788 352.4864,468.6725 Q352.4864,470.7663 353.1739,471.8444 Q353.8614,472.9069 355.2052,472.9069 Q355.8302,472.9069 356.4239,472.6413 Q357.0177,472.36 357.6427,471.7819 L357.6427,474.5006 Z " fill="#000000"/><text fill="#000000" font-family="sans-serif" font-size="14" lengthAdjust="spacing" textLength="82.8379" x="368.6926" y="473.7067">Voorziening</text><line style="stroke:#181818;stroke-width:0.5;" x1="340.59" x2="453.6144" y1="484.86" y2="484.86"/><ellipse cx="350.59" cy="498.5084" fill="none" rx="3" ry="3" style="stroke:#038048;stroke-width:1;"/><text fill="#000000" font-family="sans-serif" font-size="14" lengthAdjust="spacing" textLength="62.1318" x="359.59" y="501.8551">id: string</text><ellipse cx="350.59" cy="514.8053" fill="none" rx="3" ry="3" style="stroke:#038048;stroke-width:1;"/><text fill="#000000" font-family="sans-serif" font-size="14" lengthAdjust="spacing" textLength="89.0244" x="359.59" y="518.152">naam: string</text><line style="stroke:#181818;stroke-width:0.5;" x1="340.59" x2="453.6144" y1="525.4538" y2="525.4538"/></g><!--class Persoon--><g class="entity" data-entity="Persoon" data-source-line="34" data-uid="ent0007" id="entity_Persoon"><rect fill="#F1F1F1" height="96.8906" rx="2.5" ry="2.5" style="stroke:#181818;stroke-width:0.5;" width="115.0244" x="436.59" y="294.97"/><ellipse cx="463.7018" cy="310.97" fill="#ADD1B2" rx="11" ry="11" style="stroke:#181818;stroke-width:1;"/><path d="M466.6705,316.6106 Q466.0924,316.9075 465.4518,317.0481 Q464.8111,317.2044 464.108,317.2044 Q461.608,317.2044 460.2799,315.5637 Q458.9674,313.9075 458.9674,310.7825 Q458.9674,307.6575 460.2799,306.0012 Q461.608,304.345 464.108,304.345 Q464.8111,304.345 465.4518,304.5012 Q466.108,304.6575 466.6705,304.9544 L466.6705,307.6731 Q466.0455,307.095 465.4518,306.8294 Q464.858,306.5481 464.233,306.5481 Q462.8893,306.5481 462.2018,307.6262 Q461.5143,308.6887 461.5143,310.7825 Q461.5143,312.8762 462.2018,313.9544 Q462.8893,315.0169 464.233,315.0169 Q464.858,315.0169 465.4518,314.7512 Q466.0455,314.47 466.6705,313.8919 L466.6705,316.6106 Z " fill="#000000"/><text fill="#000000" font-family="sans-serif" font-size="14" lengthAdjust="spacing" textLength="56.1094" x="480.3933" y="315.8167">Persoon</text><line style="stroke:#181818;stroke-width:0.5;" x1="437.59" x2="550.6144" y1="326.97" y2="326.97"/><ellipse cx="447.59" cy="340.6184" fill="none" rx="3" ry="3" style="stroke:#038048;stroke-width:1;"/><text fill="#000000" font-family="sans-serif" font-size="14" lengthAdjust="spacing" textLength="62.1318" x="456.59" y="343.9651">id: string</text><ellipse cx="447.59" cy="356.9153" fill="none" rx="3" ry="3" style="stroke:#038048;stroke-width:1;"/><text fill="#000000" font-family="sans-serif" font-size="14" lengthAdjust="spacing" textLength="89.0244" x="456.59" y="360.262">naam: string</text><ellipse cx="447.59" cy="373.2122" fill="none" rx="3" ry="3" style="stroke:#038048;stroke-width:1;"/><text fill="#000000" font-family="sans-serif" font-size="14" lengthAdjust="spacing" textLength="87.9648" x="456.59" y="376.5589">email: string</text><line style="stroke:#181818;stroke-width:0.5;" x1="437.59" x2="550.6144" y1="383.8606" y2="383.8606"/></g><!--class Voorzieningstype--><g class="entity" data-entity="Voorzieningstype" data-source-line="40" data-uid="ent0008" id="entity_Voorzieningstype"><rect fill="#F1F1F1" height="113.1875" rx="2.5" ry="2.5" style="stroke:#181818;stroke-width:0.5;" width="200.0566" x="297.07" y="594.45"/><ellipse cx="333.0627" cy="610.45" fill="#ADD1B2" rx="11" ry="11" style="stroke:#181818;stroke-width:1;"/><path d="M336.0314,616.0906 Q335.4533,616.3875 334.8127,616.5281 Q334.1721,616.6844 333.4689,616.6844 Q330.9689,616.6844 329.6408,615.0437 Q328.3283,613.3875 328.3283,610.2625 Q328.3283,607.1375 329.6408,605.4812 Q330.9689,603.825 333.4689,603.825 Q334.1721,603.825 334.8127,603.9812 Q335.4689,604.1375 336.0314,604.4344 L336.0314,607.1531 Q335.4064,606.575 334.8127,606.3094 Q334.2189,606.0281 333.5939,606.0281 Q332.2502,606.0281 331.5627,607.1062 Q330.8752,608.1687 330.8752,610.2625 Q330.8752,612.3562 331.5627,613.4344 Q332.2502,614.4969 333.5939,614.4969 Q334.2189,614.4969 334.8127,614.2312 Q335.4064,613.95 336.0314,613.3719 L336.0314,616.0906 Z " fill="#000000"/><text fill="#000000" font-family="sans-serif" font-size="14" lengthAdjust="spacing" textLength="121.4063" x="351.7277" y="615.2967">Voorzieningstype</text><line style="stroke:#181818;stroke-width:0.5;" x1="298.07" x2="496.1266" y1="626.45" y2="626.45"/><ellipse cx="308.07" cy="640.0984" fill="none" rx="3" ry="3" style="stroke:#038048;stroke-width:1;"/><text fill="#000000" font-family="sans-serif" font-size="14" lengthAdjust="spacing" textLength="57.3467" x="317.07" y="643.4451">id: UUID</text><ellipse cx="308.07" cy="656.3953" fill="none" rx="3" ry="3" style="stroke:#038048;stroke-width:1;"/><text fill="#000000" font-family="sans-serif" font-size="14" lengthAdjust="spacing" textLength="89.0244" x="317.07" y="659.742">naam: string</text><ellipse cx="308.07" cy="672.6922" fill="none" rx="3" ry="3" style="stroke:#038048;stroke-width:1;"/><text fill="#000000" font-family="sans-serif" font-size="14" lengthAdjust="spacing" textLength="134.1895" x="317.07" y="676.0389">beschrijving: string</text><ellipse cx="308.07" cy="688.9891" fill="none" rx="3" ry="3" style="stroke:#038048;stroke-width:1;"/><text fill="#000000" font-family="sans-serif" font-size="14" lengthAdjust="spacing" textLength="174.0566" x="317.07" y="692.3357">bovenliggendType: UUID</text><line style="stroke:#181818;stroke-width:0.5;" x1="298.07" x2="496.1266" y1="699.6375" y2="699.6375"/></g><!--link Contract to VoorzieningAanbod--><g class="link" data-entity-1="Contract" data-entity-2="VoorzieningAanbod" data-source-line="48" data-uid="lnk9" id="link_Contract_VoorzieningAanbod"><path codeLine="48" d="M205.01,218.23 C177.47,248.26 149.11,279.18 127.58,302.65 " fill="none" id="Contract-VoorzieningAanbod" style="stroke:#181818;stroke-width:1;"/><text fill="#000000" font-family="sans-serif" font-size="13" lengthAdjust="spacing" textLength="8.271" x="190.294" y="237.91">1</text><text fill="#000000" font-family="sans-serif" font-size="13" lengthAdjust="spacing" textLength="8.271" x="124.7776" y="292.0349">1</text></g><!--link Contract to VoorzieningGebruik--><g class="link" data-entity-1="Contract" data-entity-2="VoorzieningGebruik" data-source-line="49" data-uid="lnk10" id="link_Contract_VoorzieningGebruik"><path codeLine="49" d="M295.11,218.45 C294.7,228.42 294.35,238.39 294.1,247.97 C293.91,255.52 294.05,257.41 294.1,264.97 C294.2,280.16 294.41,297.03 294.61,311.14 " fill="none" id="Contract-VoorzieningGebruik" style="stroke:#181818;stroke-width:1;"/><text fill="#000000" font-family="sans-serif" font-size="13" lengthAdjust="spacing" textLength="8.271" x="286.4476" y="238.1448">1</text><text fill="#000000" font-family="sans-serif" font-size="13" lengthAdjust="spacing" textLength="8.271" x="285.7106" y="300.0184">1</text></g><!--link Contract to Persoon--><g class="link" data-entity-1="Contract" data-entity-2="Persoon" data-source-line="50" data-uid="lnk11" id="link_Contract_Persoon"><path codeLine="50" d="M305.09,218.28 C309.5,235.14 316.44,251.46 327.1,264.97 C348.07,291.54 366.34,280.86 397.1,294.97 C409.8,300.79 423.32,307.24 436.11,313.46 " fill="none" id="Contract-Persoon" style="stroke:#181818;stroke-width:1;"/><text fill="#000000" font-family="sans-serif" font-size="13" lengthAdjust="spacing" textLength="167.7178" x="328.1" y="261.0369">contactpersoonAanbieder</text><text fill="#000000" font-family="sans-serif" font-size="13" lengthAdjust="spacing" textLength="24.8066" x="306.1911" y="237.9634">0..1</text><text fill="#000000" font-family="sans-serif" font-size="13" lengthAdjust="spacing" textLength="24.8066" x="403.6289" y="305.9701">0..1</text></g><!--link Contract to Persoon--><g class="link" data-entity-1="Contract" data-entity-2="Persoon" data-source-line="51" data-uid="lnk12" id="link_Contract_Persoon"><path codeLine="51" d="M410.94,161.41 C445.9,182.57 480.54,211.14 500.1,247.97 C507.58,262.04 508.53,279.01 506.82,294.66 " fill="none" id="Contract-Persoon-1" style="stroke:#181818;stroke-width:1;"/><text fill="#000000" font-family="sans-serif" font-size="13" lengthAdjust="spacing" textLength="165.5532" x="506.1" y="261.0369">contactpersoonGebruiker</text><text fill="#000000" font-family="sans-serif" font-size="13" lengthAdjust="spacing" textLength="24.8066" x="418.7709" y="161.135">0..1</text><text fill="#000000" font-family="sans-serif" font-size="13" lengthAdjust="spacing" textLength="24.8066" x="482.9777" y="283.8253">0..1</text></g><!--link VoorzieningGebruik to Organisatie--><g class="link" data-entity-1="VoorzieningGebruik" data-entity-2="Organisatie" data-source-line="52" data-uid="lnk13" id="link_VoorzieningGebruik_Organisatie"><path codeLine="52" d="M284.92,375.75 C277.66,398.11 267.83,428.36 260.01,452.42 " fill="none" id="VoorzieningGebruik-Organisatie" style="stroke:#181818;stroke-width:1;"/><text fill="#000000" font-family="sans-serif" font-size="13" lengthAdjust="spacing" textLength="8.271" x="274.1538" y="395.6738">1</text><text fill="#000000" font-family="sans-serif" font-size="13" lengthAdjust="spacing" textLength="8.271" x="253.4513" y="441.8097">1</text></g><!--link VoorzieningGebruik to Voorziening--><g class="link" data-entity-1="VoorzieningGebruik" data-entity-2="Voorziening" data-source-line="53" data-uid="lnk14" id="link_VoorzieningGebruik_Voorziening"><path codeLine="53" d="M316.73,375.75 C332.17,398.11 353.06,428.36 369.67,452.42 " fill="none" id="VoorzieningGebruik-Voorziening" style="stroke:#181818;stroke-width:1;"/><text fill="#000000" font-family="sans-serif" font-size="13" lengthAdjust="spacing" textLength="8.271" x="312.2264" y="395.6738">1</text><text fill="#000000" font-family="sans-serif" font-size="13" lengthAdjust="spacing" textLength="8.271" x="356.6821" y="441.8097">1</text></g><!--link Voorziening to Voorzieningstype--><g class="link" data-entity-1="Voorziening" data-entity-2="Voorzieningstype" data-source-line="54" data-uid="lnk15" id="link_Voorziening_Voorzieningstype"><path codeLine="54" d="M397.1,533.9 C397.1,552.21 397.1,574.26 397.1,594.2 " fill="none" id="Voorziening-Voorzieningstype" style="stroke:#181818;stroke-width:1;"/><text fill="#000000" font-family="sans-serif" font-size="13" lengthAdjust="spacing" textLength="6.5" x="390.6614" y="553.6662">*</text><text fill="#000000" font-family="sans-serif" font-size="13" lengthAdjust="spacing" textLength="8.271" x="388.6292" y="583.4331">1</text></g><!--link Voorzieningstype to Voorzieningstype--><g class="link" data-entity-1="Voorzieningstype" data-entity-2="Voorzieningstype" data-source-line="55" data-uid="lnk16" id="link_Voorzieningstype_Voorzieningstype"><path codeLine="55" d="M497.5,635.36 C517.7,637.1 532.13,642.33 532.13,651.05 C532.13,659.76 517.7,664.99 497.5,666.73 " fill="none" id="Voorzieningstype-Voorzieningstype" style="stroke:#181818;stroke-width:1;"/><text fill="#000000" font-family="sans-serif" font-size="13" lengthAdjust="spacing" textLength="120.2373" x="538.13" y="655.6169">bovenliggendType</text><text fill="#000000" font-family="sans-serif" font-size="13" lengthAdjust="spacing" textLength="23.0356" x="505.0196" y="630.8737">0..*</text><text fill="#000000" font-family="sans-serif" font-size="13" lengthAdjust="spacing" textLength="24.8066" x="505.0791" y="664.3514">0..1</text></g><!--SRC=[dLB1JiCm3BttAwnT9WrjWcjlY4a88G6Q6FUqyOPPuqn9EWaG_uxJTLjOgmqu9Nb-VdRyF8JxIdcF31eNn1G8VLP626ui1wVA09yPm0Nf77nmnCluya6vC5MXDZbe5J1YIAoFeBALUAYDGPSAx2BFxslC0Ras4LrP7v1pa6U1xe0yeIEh4wAsPMsGmmmNwEGaFEekrFx0jckflf9Wr6vfNrdxpHThtGSX2tYjkB2wxx-ib3cPUek5gsdLoTrp7zrICNabhVwhmE-JP5ZUMZwR42qpYggJPNqGWmvIy_dTj4-eG5- -EdhRoFi7RZV85IrbydfhTQCWbOOmmqerwxPVjC7L0CRZvkYuSexL6f3GBYUJbhczxUQIGrm-eQotGDGdrB9lVyzjgqfkpouaZIRkds4cqPG9Wr4VfR4dw_WLknwb_NSOEHnRymq0]--></g></svg>