<svg xmlns="http://www.w3.org/2000/svg" xmlns:xlink="http://www.w3.org/1999/xlink" contentStyleType="text/css" data-diagram-type="CLASS" height="1085px" preserveAspectRatio="none" style="width:594px;height:1085px;background:#FFFFFF;" version="1.1" viewBox="0 0 594 1085" width="594px" zoomAndPan="magnify"><title>Software Catalogus - Objecten en Relaties</title><defs/><g><text fill="#333333" font-family="sans-serif" font-size="20" font-weight="bold" lengthAdjust="spacing" textLength="477.168" x="51.416" y="28.5645">Software Catalogus - Objecten en Relaties</text><!--cluster Software Catalogus--><g class="cluster" data-entity="Software Catalogus" data-source-line="13" data-uid="ent0002" id="cluster_Software Catalogus"><path d="M8.5,50.2813 L164.2383,50.2813 A3.75,3.75 0 0 1 166.7383,52.7813 L173.7383,72.5781 L584.5,72.5781 A2.5,2.5 0 0 1 587,75.0781 L587,1075.8713 A2.5,2.5 0 0 1 584.5,1078.3713 L8.5,1078.3713 A2.5,2.5 0 0 1 6,1075.8713 L6,52.7813 A2.5,2.5 0 0 1 8.5,50.2813 " fill="#F0F0F0" style="stroke:#999999;stroke-width:1.5;"/><line style="stroke:#999999;stroke-width:1.5;" x1="6" x2="173.7383" y1="72.5781" y2="72.5781"/><text fill="#000000" font-family="sans-serif" font-size="14" font-weight="bold" lengthAdjust="spacing" textLength="154.7383" x="10" y="65.2764">Software Catalogus</text></g><!--class Leveranciersorganisatie--><g class="entity" data-entity="Leveranciersorganisatie" data-source-line="14" data-uid="ent0003" id="entity_Leveranciersorganisatie"><rect fill="#F5F5F5" height="178.375" rx="2.5" ry="2.5" style="stroke:#999999;stroke-width:0.5;" width="200.1846" x="21.91" y="85.2812"/><ellipse cx="36.91" cy="101.2812" fill="#ADD1B2" rx="11" ry="11" style="stroke:#181818;stroke-width:1;"/><path d="M39.8788,106.9219 Q39.3006,107.2187 38.66,107.3594 Q38.0194,107.5156 37.3163,107.5156 Q34.8163,107.5156 33.4881,105.875 Q32.1756,104.2187 32.1756,101.0937 Q32.1756,97.9687 33.4881,96.3125 Q34.8163,94.6562 37.3163,94.6562 Q38.0194,94.6562 38.66,94.8125 Q39.3163,94.9687 39.8788,95.2656 L39.8788,97.9844 Q39.2538,97.4062 38.66,97.1406 Q38.0663,96.8594 37.4413,96.8594 Q36.0975,96.8594 35.41,97.9375 Q34.7225,99 34.7225,101.0937 Q34.7225,103.1875 35.41,104.2656 Q36.0975,105.3281 37.4413,105.3281 Q38.0663,105.3281 38.66,105.0625 Q39.2538,104.7812 39.8788,104.2031 L39.8788,106.9219 Z " fill="#000000"/><text fill="#000000" font-family="sans-serif" font-size="14" lengthAdjust="spacing" textLength="168.1846" x="50.91" y="106.1279">Leveranciersorganisatie</text><line style="stroke:#999999;stroke-width:0.5;" x1="22.91" x2="221.0946" y1="117.2812" y2="117.2812"/><ellipse cx="32.91" cy="130.9297" fill="none" rx="3" ry="3" style="stroke:#038048;stroke-width:1;"/><text fill="#000000" font-family="sans-serif" font-size="14" lengthAdjust="spacing" textLength="62.1318" x="41.91" y="134.2764">id: string</text><ellipse cx="32.91" cy="147.2266" fill="none" rx="3" ry="3" style="stroke:#038048;stroke-width:1;"/><text fill="#000000" font-family="sans-serif" font-size="14" lengthAdjust="spacing" textLength="89.0244" x="41.91" y="150.5732">naam: string</text><ellipse cx="32.91" cy="163.5234" fill="none" rx="3" ry="3" style="stroke:#038048;stroke-width:1;"/><text fill="#000000" font-family="sans-serif" font-size="14" lengthAdjust="spacing" textLength="134.8457" x="41.91" y="166.8701">kvkNummer: string</text><ellipse cx="32.91" cy="179.8203" fill="none" rx="3" ry="3" style="stroke:#038048;stroke-width:1;"/><text fill="#000000" font-family="sans-serif" font-size="14" lengthAdjust="spacing" textLength="103.5918" x="41.91" y="183.167">website: string</text><ellipse cx="32.91" cy="196.1172" fill="none" rx="3" ry="3" style="stroke:#038048;stroke-width:1;"/><text fill="#000000" font-family="sans-serif" font-size="14" lengthAdjust="spacing" textLength="91.4375" x="41.91" y="199.4639">adres: object</text><ellipse cx="32.91" cy="212.4141" fill="none" rx="3" ry="3" style="stroke:#038048;stroke-width:1;"/><text fill="#000000" font-family="sans-serif" font-size="14" lengthAdjust="spacing" textLength="172.7646" x="41.91" y="215.7607">contactgegevens: object</text><ellipse cx="32.91" cy="228.7109" fill="none" rx="3" ry="3" style="stroke:#038048;stroke-width:1;"/><text fill="#000000" font-family="sans-serif" font-size="14" lengthAdjust="spacing" textLength="134.1895" x="41.91" y="232.0576">beschrijving: string</text><ellipse cx="32.91" cy="245.0078" fill="none" rx="3" ry="3" style="stroke:#038048;stroke-width:1;"/><text fill="#000000" font-family="sans-serif" font-size="14" lengthAdjust="spacing" textLength="79.2627" x="41.91" y="248.3545">logo: string</text><line style="stroke:#999999;stroke-width:0.5;" x1="22.91" x2="221.0946" y1="255.6562" y2="255.6562"/></g><!--class Voorziening--><g class="entity" data-entity="Voorziening" data-source-line="25" data-uid="ent0004" id="entity_Voorziening"><rect fill="#F5F5F5" height="178.375" rx="2.5" ry="2.5" style="stroke:#999999;stroke-width:0.5;" width="314.4697" x="256.77" y="85.2812"/><ellipse cx="368.3359" cy="101.2812" fill="#ADD1B2" rx="11" ry="11" style="stroke:#181818;stroke-width:1;"/><path d="M371.3047,106.9219 Q370.7265,107.2187 370.0859,107.3594 Q369.4453,107.5156 368.7422,107.5156 Q366.2422,107.5156 364.914,105.875 Q363.6015,104.2187 363.6015,101.0937 Q363.6015,97.9687 364.914,96.3125 Q366.2422,94.6562 368.7422,94.6562 Q369.4453,94.6562 370.0859,94.8125 Q370.7422,94.9687 371.3047,95.2656 L371.3047,97.9844 Q370.6797,97.4062 370.0859,97.1406 Q369.4922,96.8594 368.8672,96.8594 Q367.5234,96.8594 366.8359,97.9375 Q366.1484,99 366.1484,101.0937 Q366.1484,103.1875 366.8359,104.2656 Q367.5234,105.3281 368.8672,105.3281 Q369.4922,105.3281 370.0859,105.0625 Q370.6797,104.7812 371.3047,104.2031 L371.3047,106.9219 Z " fill="#000000"/><text fill="#000000" font-family="sans-serif" font-size="14" lengthAdjust="spacing" textLength="82.8379" x="388.8359" y="106.1279">Voorziening</text><line style="stroke:#999999;stroke-width:0.5;" x1="257.77" x2="570.2397" y1="117.2812" y2="117.2812"/><ellipse cx="267.77" cy="130.9297" fill="none" rx="3" ry="3" style="stroke:#038048;stroke-width:1;"/><text fill="#000000" font-family="sans-serif" font-size="14" lengthAdjust="spacing" textLength="62.1318" x="276.77" y="134.2764">id: string</text><ellipse cx="267.77" cy="147.2266" fill="none" rx="3" ry="3" style="stroke:#038048;stroke-width:1;"/><text fill="#000000" font-family="sans-serif" font-size="14" lengthAdjust="spacing" textLength="89.0244" x="276.77" y="150.5732">naam: string</text><ellipse cx="267.77" cy="163.5234" fill="none" rx="3" ry="3" style="stroke:#038048;stroke-width:1;"/><text fill="#000000" font-family="sans-serif" font-size="14" lengthAdjust="spacing" textLength="134.1895" x="276.77" y="166.8701">beschrijving: string</text><ellipse cx="267.77" cy="179.8203" fill="none" rx="3" ry="3" style="stroke:#038048;stroke-width:1;"/><text fill="#000000" font-family="sans-serif" font-size="14" lengthAdjust="spacing" textLength="115.4453" x="276.77" y="183.167">categorie: string</text><ellipse cx="267.77" cy="196.1172" fill="none" rx="3" ry="3" style="stroke:#038048;stroke-width:1;"/><text fill="#000000" font-family="sans-serif" font-size="14" lengthAdjust="spacing" textLength="174.7949" x="276.77" y="199.4639">functionaliteiten: string[]</text><ellipse cx="267.77" cy="212.4141" fill="none" rx="3" ry="3" style="stroke:#038048;stroke-width:1;"/><text fill="#000000" font-family="sans-serif" font-size="14" lengthAdjust="spacing" textLength="130.9424" x="276.77" y="215.7607">doelgroep: string[]</text><ellipse cx="267.77" cy="228.7109" fill="none" rx="3" ry="3" style="stroke:#038048;stroke-width:1;"/><text fill="#000000" font-family="sans-serif" font-size="14" lengthAdjust="spacing" textLength="288.4697" x="276.77" y="232.0576">gemmaReferentieComponenten: object[]</text><ellipse cx="267.77" cy="245.0078" fill="none" rx="3" ry="3" style="stroke:#038048;stroke-width:1;"/><text fill="#000000" font-family="sans-serif" font-size="14" lengthAdjust="spacing" textLength="151.6416" x="276.77" y="248.3545">standaarden: object[]</text><line style="stroke:#999999;stroke-width:0.5;" x1="257.77" x2="570.2397" y1="255.6562" y2="255.6562"/></g><!--class Voorzieningaanbod--><g class="entity" data-entity="Voorzieningaanbod" data-source-line="36" data-uid="ent0005" id="entity_Voorzieningaanbod"><rect fill="#F5F5F5" height="162.0781" rx="2.5" ry="2.5" style="stroke:#999999;stroke-width:0.5;" width="252.6455" x="109.68" y="340.6512"/><ellipse cx="164.1488" cy="356.6512" fill="#ADD1B2" rx="11" ry="11" style="stroke:#181818;stroke-width:1;"/><path d="M167.1175,362.2919 Q166.5394,362.5887 165.8988,362.7294 Q165.2581,362.8856 164.555,362.8856 Q162.055,362.8856 160.7269,361.245 Q159.4144,359.5887 159.4144,356.4637 Q159.4144,353.3387 160.7269,351.6825 Q162.055,350.0262 164.555,350.0262 Q165.2581,350.0262 165.8988,350.1825 Q166.555,350.3387 167.1175,350.6356 L167.1175,353.3544 Q166.4925,352.7762 165.8988,352.5106 Q165.305,352.2294 164.68,352.2294 Q163.3363,352.2294 162.6488,353.3075 Q161.9613,354.37 161.9613,356.4637 Q161.9613,358.5575 162.6488,359.6356 Q163.3363,360.6981 164.68,360.6981 Q165.305,360.6981 165.8988,360.4325 Q166.4925,360.1512 167.1175,359.5731 L167.1175,362.2919 Z " fill="#000000"/><text fill="#000000" font-family="sans-serif" font-size="14" lengthAdjust="spacing" textLength="135.208" x="184.6488" y="361.4979">Voorzieningaanbod</text><line style="stroke:#999999;stroke-width:0.5;" x1="110.68" x2="361.3255" y1="372.6512" y2="372.6512"/><ellipse cx="120.68" cy="386.2997" fill="none" rx="3" ry="3" style="stroke:#038048;stroke-width:1;"/><text fill="#000000" font-family="sans-serif" font-size="14" lengthAdjust="spacing" textLength="62.1318" x="129.68" y="389.6464">id: string</text><ellipse cx="120.68" cy="402.5966" fill="none" rx="3" ry="3" style="stroke:#038048;stroke-width:1;"/><text fill="#000000" font-family="sans-serif" font-size="14" lengthAdjust="spacing" textLength="143.917" x="129.68" y="405.9432">voorzieningId: string</text><ellipse cx="120.68" cy="418.8934" fill="none" rx="3" ry="3" style="stroke:#038048;stroke-width:1;"/><text fill="#000000" font-family="sans-serif" font-size="14" lengthAdjust="spacing" textLength="226.6455" x="129.68" y="422.2401">leveranciersorganisatieId: string</text><ellipse cx="120.68" cy="435.1903" fill="none" rx="3" ry="3" style="stroke:#038048;stroke-width:1;"/><text fill="#000000" font-family="sans-serif" font-size="14" lengthAdjust="spacing" textLength="151.2041" x="129.68" y="438.537">productpagina: string</text><ellipse cx="120.68" cy="451.4872" fill="none" rx="3" ry="3" style="stroke:#038048;stroke-width:1;"/><text fill="#000000" font-family="sans-serif" font-size="14" lengthAdjust="spacing" textLength="201.7285" x="129.68" y="454.8339">ondersteuningsmodel: string</text><ellipse cx="120.68" cy="467.7841" fill="none" rx="3" ry="3" style="stroke:#038048;stroke-width:1;"/><text fill="#000000" font-family="sans-serif" font-size="14" lengthAdjust="spacing" textLength="143.9033" x="129.68" y="471.1307">licentiemodel: string</text><ellipse cx="120.68" cy="484.0809" fill="none" rx="3" ry="3" style="stroke:#038048;stroke-width:1;"/><text fill="#000000" font-family="sans-serif" font-size="14" lengthAdjust="spacing" textLength="154.8887" x="129.68" y="487.4276">hostingopties: string[]</text><line style="stroke:#999999;stroke-width:0.5;" x1="110.68" x2="361.3255" y1="494.7294" y2="494.7294"/></g><!--class Voorzieningversie--><g class="entity" data-entity="Voorzieningversie" data-source-line="46" data-uid="ent0006" id="entity_Voorzieningversie"><rect fill="#F5F5F5" height="178.375" rx="2.5" ry="2.5" style="stroke:#999999;stroke-width:0.5;" width="222.2871" x="124.86" y="579.7312"/><ellipse cx="169.1091" cy="595.7312" fill="#ADD1B2" rx="11" ry="11" style="stroke:#181818;stroke-width:1;"/><path d="M172.0779,601.3719 Q171.4997,601.6687 170.8591,601.8094 Q170.2185,601.9656 169.5154,601.9656 Q167.0154,601.9656 165.6872,600.325 Q164.3747,598.6687 164.3747,595.5437 Q164.3747,592.4187 165.6872,590.7625 Q167.0154,589.1062 169.5154,589.1062 Q170.2185,589.1062 170.8591,589.2625 Q171.5154,589.4187 172.0779,589.7156 L172.0779,592.4344 Q171.4529,591.8562 170.8591,591.5906 Q170.2654,591.3094 169.6404,591.3094 Q168.2966,591.3094 167.6091,592.3875 Q166.9216,593.45 166.9216,595.5437 Q166.9216,597.6375 167.6091,598.7156 Q168.2966,599.7781 169.6404,599.7781 Q170.2654,599.7781 170.8591,599.5125 Q171.4529,599.2312 172.0779,598.6531 L172.0779,601.3719 Z " fill="#000000"/><text fill="#000000" font-family="sans-serif" font-size="14" lengthAdjust="spacing" textLength="125.2891" x="189.6089" y="600.5779">Voorzieningversie</text><line style="stroke:#999999;stroke-width:0.5;" x1="125.86" x2="346.1471" y1="611.7312" y2="611.7312"/><ellipse cx="135.86" cy="625.3797" fill="none" rx="3" ry="3" style="stroke:#038048;stroke-width:1;"/><text fill="#000000" font-family="sans-serif" font-size="14" lengthAdjust="spacing" textLength="62.1318" x="144.86" y="628.7264">id: string</text><ellipse cx="135.86" cy="641.6766" fill="none" rx="3" ry="3" style="stroke:#038048;stroke-width:1;"/><text fill="#000000" font-family="sans-serif" font-size="14" lengthAdjust="spacing" textLength="196.2871" x="144.86" y="645.0232">voorzieningaanbodId: string</text><ellipse cx="135.86" cy="657.9734" fill="none" rx="3" ry="3" style="stroke:#038048;stroke-width:1;"/><text fill="#000000" font-family="sans-serif" font-size="14" lengthAdjust="spacing" textLength="151.1973" x="144.86" y="661.3201">versienummer: string</text><ellipse cx="135.86" cy="674.2703" fill="none" rx="3" ry="3" style="stroke:#038048;stroke-width:1;"/><text fill="#000000" font-family="sans-serif" font-size="14" lengthAdjust="spacing" textLength="141.1484" x="144.86" y="677.617">releaseNotes: string</text><ellipse cx="135.86" cy="690.5672" fill="none" rx="3" ry="3" style="stroke:#038048;stroke-width:1;"/><text fill="#000000" font-family="sans-serif" font-size="14" lengthAdjust="spacing" textLength="139.4531" x="144.86" y="693.9139">releaseDatum: date</text><ellipse cx="135.86" cy="706.8641" fill="none" rx="3" ry="3" style="stroke:#038048;stroke-width:1;"/><text fill="#000000" font-family="sans-serif" font-size="14" lengthAdjust="spacing" textLength="126.9707" x="144.86" y="710.2107">eindeDatum: date</text><ellipse cx="135.86" cy="723.1609" fill="none" rx="3" ry="3" style="stroke:#038048;stroke-width:1;"/><text fill="#000000" font-family="sans-serif" font-size="14" lengthAdjust="spacing" textLength="92.374" x="144.86" y="726.5076">status: string</text><ellipse cx="135.86" cy="739.4578" fill="none" rx="3" ry="3" style="stroke:#038048;stroke-width:1;"/><text fill="#000000" font-family="sans-serif" font-size="14" lengthAdjust="spacing" textLength="176.9619" x="144.86" y="742.8045">systeemvereisten: object</text><line style="stroke:#999999;stroke-width:0.5;" x1="125.86" x2="346.1471" y1="750.1062" y2="750.1062"/></g><!--class Kwetsbaarheid--><g class="entity" data-entity="Kwetsbaarheid" data-source-line="57" data-uid="ent0007" id="entity_Kwetsbaarheid"><rect fill="#F5F5F5" height="227.2656" rx="2.5" ry="2.5" style="stroke:#999999;stroke-width:0.5;" width="212.3682" x="129.82" y="835.1012"/><ellipse cx="179.7087" cy="851.1012" fill="#ADD1B2" rx="11" ry="11" style="stroke:#181818;stroke-width:1;"/><path d="M182.6774,856.7419 Q182.0993,857.0387 181.4587,857.1794 Q180.818,857.3356 180.1149,857.3356 Q177.6149,857.3356 176.2868,855.695 Q174.9743,854.0387 174.9743,850.9137 Q174.9743,847.7887 176.2868,846.1325 Q177.6149,844.4762 180.1149,844.4762 Q180.818,844.4762 181.4587,844.6325 Q182.1149,844.7887 182.6774,845.0856 L182.6774,847.8044 Q182.0524,847.2262 181.4587,846.9606 Q180.8649,846.6794 180.2399,846.6794 Q178.8962,846.6794 178.2087,847.7575 Q177.5212,848.82 177.5212,850.9137 Q177.5212,853.0075 178.2087,854.0856 Q178.8962,855.1481 180.2399,855.1481 Q180.8649,855.1481 181.4587,854.8825 Q182.0524,854.6012 182.6774,854.0231 L182.6774,856.7419 Z " fill="#000000"/><text fill="#000000" font-family="sans-serif" font-size="14" lengthAdjust="spacing" textLength="104.0908" x="200.2087" y="855.9479">Kwetsbaarheid</text><line style="stroke:#999999;stroke-width:0.5;" x1="130.82" x2="341.1882" y1="867.1012" y2="867.1012"/><ellipse cx="140.82" cy="880.7497" fill="none" rx="3" ry="3" style="stroke:#038048;stroke-width:1;"/><text fill="#000000" font-family="sans-serif" font-size="14" lengthAdjust="spacing" textLength="62.1318" x="149.82" y="884.0964">id: string</text><ellipse cx="140.82" cy="897.0466" fill="none" rx="3" ry="3" style="stroke:#038048;stroke-width:1;"/><text fill="#000000" font-family="sans-serif" font-size="14" lengthAdjust="spacing" textLength="186.3682" x="149.82" y="900.3932">voorzieningversieId: string</text><ellipse cx="140.82" cy="913.3434" fill="none" rx="3" ry="3" style="stroke:#038048;stroke-width:1;"/><text fill="#000000" font-family="sans-serif" font-size="14" lengthAdjust="spacing" textLength="134.9414" x="149.82" y="916.6901">cveNummer: string</text><ellipse cx="140.82" cy="929.6403" fill="none" rx="3" ry="3" style="stroke:#038048;stroke-width:1;"/><text fill="#000000" font-family="sans-serif" font-size="14" lengthAdjust="spacing" textLength="76.7266" x="149.82" y="932.987">titel: string</text><ellipse cx="140.82" cy="945.9372" fill="none" rx="3" ry="3" style="stroke:#038048;stroke-width:1;"/><text fill="#000000" font-family="sans-serif" font-size="14" lengthAdjust="spacing" textLength="134.1895" x="149.82" y="949.2839">beschrijving: string</text><ellipse cx="140.82" cy="962.2341" fill="none" rx="3" ry="3" style="stroke:#038048;stroke-width:1;"/><text fill="#000000" font-family="sans-serif" font-size="14" lengthAdjust="spacing" textLength="85.3809" x="149.82" y="965.5807">ernst: string</text><ellipse cx="140.82" cy="978.5309" fill="none" rx="3" ry="3" style="stroke:#038048;stroke-width:1;"/><text fill="#000000" font-family="sans-serif" font-size="14" lengthAdjust="spacing" textLength="114.666" x="149.82" y="981.8776">ontdektOp: date</text><ellipse cx="140.82" cy="994.8278" fill="none" rx="3" ry="3" style="stroke:#038048;stroke-width:1;"/><text fill="#000000" font-family="sans-serif" font-size="14" lengthAdjust="spacing" textLength="152.1338" x="149.82" y="998.1745">gepubliceerdOp: date</text><ellipse cx="140.82" cy="1011.1247" fill="none" rx="3" ry="3" style="stroke:#038048;stroke-width:1;"/><text fill="#000000" font-family="sans-serif" font-size="14" lengthAdjust="spacing" textLength="122.5479" x="149.82" y="1014.4714">opgelostIn: string</text><ellipse cx="140.82" cy="1027.4216" fill="none" rx="3" ry="3" style="stroke:#038048;stroke-width:1;"/><text fill="#000000" font-family="sans-serif" font-size="14" lengthAdjust="spacing" textLength="111.7197" x="149.82" y="1030.7682">mitigatie: string</text><ellipse cx="140.82" cy="1043.7184" fill="none" rx="3" ry="3" style="stroke:#038048;stroke-width:1;"/><text fill="#000000" font-family="sans-serif" font-size="14" lengthAdjust="spacing" textLength="136.7188" x="149.82" y="1047.0651">referenties: string[]</text><line style="stroke:#999999;stroke-width:0.5;" x1="130.82" x2="341.1882" y1="1054.3669" y2="1054.3669"/></g><!--link Leveranciersorganisatie to Voorzieningaanbod--><g class="link" data-entity-1="Leveranciersorganisatie" data-entity-2="Voorzieningaanbod" data-source-line="73" data-uid="lnk8" id="link_Leveranciersorganisatie_Voorzieningaanbod"><path codeLine="73" d="M163.16,264.0012 C174.76,288.9712 187.32,315.9812 198.69,340.4412 " fill="none" id="Leveranciersorganisatie-Voorzieningaanbod" style="stroke:#666666;stroke-width:1;"/><polygon fill="#000000" points="189.1075,306.7518,187.9601,297.3107,182.6299,299.7882,189.1075,306.7518" style="stroke:#000000;stroke-width:1;"/><text fill="#000000" font-family="sans-serif" font-size="13" lengthAdjust="spacing" textLength="61.5151" x="196" y="306.7181">biedt aan</text><text fill="#000000" font-family="sans-serif" font-size="13" lengthAdjust="spacing" textLength="8.271" x="158.1318" y="283.8057">1</text><text fill="#000000" font-family="sans-serif" font-size="13" lengthAdjust="spacing" textLength="36.5625" x="157.7888" y="329.6098">many</text></g><!--link Voorziening to Voorzieningaanbod--><g class="link" data-entity-1="Voorziening" data-entity-2="Voorzieningaanbod" data-source-line="74" data-uid="lnk9" id="link_Voorziening_Voorzieningaanbod"><path codeLine="74" d="M349.74,264.0012 C331.61,288.9712 312,315.9812 294.25,340.4412 " fill="none" id="Voorziening-Voorzieningaanbod" style="stroke:#666666;stroke-width:1;"/><polygon fill="#000000" points="327.0627,306.2639,334.7547,300.6707,329.998,297.2177,327.0627,306.2639" style="stroke:#000000;stroke-width:1;"/><text fill="#000000" font-family="sans-serif" font-size="13" lengthAdjust="spacing" textLength="145.0122" x="339" y="306.7181">wordt aangeboden als</text><text fill="#000000" font-family="sans-serif" font-size="13" lengthAdjust="spacing" textLength="8.271" x="336.3109" y="283.8057">1</text><text fill="#000000" font-family="sans-serif" font-size="13" lengthAdjust="spacing" textLength="36.5625" x="261.8596" y="329.6098">many</text></g><!--link Voorzieningaanbod to Voorzieningversie--><g class="link" data-entity-1="Voorzieningaanbod" data-entity-2="Voorzieningversie" data-source-line="75" data-uid="lnk10" id="link_Voorzieningaanbod_Voorzieningversie"><path codeLine="75" d="M236,502.9912 C236,527.4312 236,554.4312 236,579.3912 " fill="none" id="Voorzieningaanbod-Voorzieningversie" style="stroke:#666666;stroke-width:1;"/><polygon fill="#000000" points="241,546.2977,243.9389,537.2526,238.0611,537.2526,241,546.2977" style="stroke:#000000;stroke-width:1;"/><text fill="#000000" font-family="sans-serif" font-size="13" lengthAdjust="spacing" textLength="84.2334" x="250" y="545.7981">heeft versies</text><text fill="#000000" font-family="sans-serif" font-size="13" lengthAdjust="spacing" textLength="8.271" x="227.6677" y="522.6952">1</text><text fill="#000000" font-family="sans-serif" font-size="13" lengthAdjust="spacing" textLength="36.5625" x="198.5878" y="568.7316">many</text></g><!--link Voorzieningversie to Kwetsbaarheid--><g class="link" data-entity-1="Voorzieningversie" data-entity-2="Kwetsbaarheid" data-source-line="76" data-uid="lnk11" id="link_Voorzieningversie_Kwetsbaarheid"><path codeLine="76" d="M236,758.5813 C236,782.8812 236,809.5513 236,835.0012 " fill="none" id="Voorzieningversie-Kwetsbaarheid" style="stroke:#666666;stroke-width:1;"/><polygon fill="#000000" points="241,801.6677,243.9389,792.6226,238.0611,792.6226,241,801.6677" style="stroke:#000000;stroke-width:1;"/><text fill="#000000" font-family="sans-serif" font-size="13" lengthAdjust="spacing" textLength="86.2075" x="250" y="801.1681">kan bevatten</text><text fill="#000000" font-family="sans-serif" font-size="13" lengthAdjust="spacing" textLength="8.271" x="227.7039" y="778.0922">1</text><text fill="#000000" font-family="sans-serif" font-size="13" lengthAdjust="spacing" textLength="36.5625" x="198.8092" y="823.9273">many</text></g><!--SRC=[ZLLDRzGm4BtdLrZXq0EgL40WiOSUA4AgGAtKIbmGXqaywtNNyKJs9AiMyT-PV9J6RXQQvB2UDvxnctcUFL6tVEzGQTnQRzcIZqNSMzz2W4PLKEzDeCxh2t8Kr65d6HTuxI36JvdJg-txuNtcHa5Zc5q-Zi_21KAWmmn-69y5s4e6CFWyqTdmhZZ-CnLRTlY5FD_Q1rHlpzQWUU-xyIcAqQxAMzho0GAg2s1mPBgeJjLrTOSrerVotQ03jXZBefYFihQfLByADHL5VSCU0_ZQOeWK37WRXmYZXrAlhTweoC5wCwqzG9DQzlt-gciQ3AdvW5MKNgL6q07ZHj5uuibK2rcesQ2HW_WCh33Mks3lUecGHX8UjB3yBluI-auK7Ynw0LvEudYY6XWD1PinsNQ-7iGAJaZAvn_X7pyd1qteH2lOve31fe4Rt690BuM-eAObBp-741FtHy_8u3M0I2c5ria2-8hqCShza-Db1hbr1UHkRI3TrTo2iHvIYBoeFJ9sG_ZOa4QNfR3rI7O5sb5aML0xo3QfrJfDEMiyBiy-hqVEOjhkLmGRq254l29-EaU2V0RkH3PQ137PqGhlPrRf6dTPX7WlrS56agEDYqwdBByUa6Cb3T-XVKaZ9ouvmxh7jVie4oGl_N7HO_2HynwpnZrVjqkk1jkk6fgBGQS8jGQTjFRIfs4Q6V5ca5TUuiVxa6j0wdCoZpNvQzZPDXR7HbRvfbIdfwfimD-NArTZeogBcfKirNcnd1F_ttcGYJxkD2W6cRJWOXfaTZqQQXRkHkqGjwocPHPZzabZfBBOgBqSly8UU9Zvvty0]--></g></svg>